<!DOCTYPE svg PUBLIC "-//W3C//DTD SVG 20010904//EN" "http://www.w3.org/TR/2001/REC-SVG-20010904/DTD/svg10.dtd">
<svg version="1.0" xmlns="http://www.w3.org/2000/svg" width="149px" height="205px" viewBox="0 0 1490 2050" preserveAspectRatio="xMidYMid meet">
<g id="layer101" fill="#8a83c6" stroke="none">
 <path d="M757 1983 c-22 -25 -47 -98 -47 -139 l0 -34 -55 0 c-70 0 -168 -32 -219 -73 -46 -37 -96 -111 -96 -145 0 -13 -7 -45 -16 -73 -15 -46 -19 -49 -49 -49 -49 0 -75 -37 -75 -106 0 -64 14 -97 48 -115 33 -18 47 -54 67 -168 15 -87 46 -174 66 -187 5 -3 9 -12 9 -21 0 -40 91 -113 143 -113 16 0 47 -31 47 -47 0 -6 15 -24 34 -40 32 -29 38 -30 156 -36 123 -6 264 9 314 34 39 20 56 51 56 103 0 43 4 53 33 78 l32 29 1 197 c0 108 6 276 12 372 14 219 15 475 2 500 -16 30 -75 40 -267 46 -166 5 -180 4 -196 -13z m367 -328 c0 -132 -4 -345 -9 -473 l-8 -234 -91 6 c-50 2 -118 9 -151 15 -33 5 -144 10 -247 10 -214 1 -189 -12 -207 106 -5 33 -22 98 -38 145 -24 71 -32 85 -53 90 -18 4 -26 13 -28 32 -3 26 -2 26 27 15 55 -20 70 7 111 206 11 54 70 112 129 127 25 7 82 14 126 17 44 3 86 11 93 18 8 7 16 32 18 56 3 24 7 59 10 77 l5 33 157 -3 157 -3 -1 -240z m-300 -775 c45 -1 57 -3 44 -10 -9 -6 -24 -35 -33 -66 -18 -61 -36 -74 -107 -74 -42 0 -78 21 -78 47 0 18 13 16 56 -8 30 -16 42 -18 61 -10 28 13 31 51 6 73 -55 48 -121 60 -179 32 -29 -14 -38 -14 -71 -3 l-38 14 50 6 c28 4 90 5 139 3 49 -2 117 -4 150 -4z m189 -30 l38 0 -3 -47 -3 -48 -64 -13 c-35 -7 -65 -11 -67 -9 -2 2 3 24 11 50 8 26 11 55 8 64 -5 13 -2 15 18 10 13 -4 41 -7 62 -7z"/>
 <path d="M697 1202 c-23 -25 -21 -46 6 -78 18 -20 29 -25 45 -20 50 16 47 81 -5 105 -30 14 -27 14 -46 -7z"/>
 <path d="M377 713 c-8 -10 -19 -31 -22 -48 -4 -16 -18 -48 -30 -70 -14 -24 -26 -67 -30 -107 -8 -75 -21 -92 -78 -102 -60 -11 -77 -37 -77 -122 0 -77 13 -104 50 -104 33 0 50 28 50 81 0 44 2 49 23 49 31 0 94 45 112 80 8 16 15 51 15 78 0 30 9 66 24 98 48 99 56 143 30 168 -20 21 -47 20 -67 -1z"/>
 <path d="M1066 624 c-44 -43 4 -140 86 -175 24 -10 27 -15 20 -38 -4 -14 -7 -54 -6 -88 1 -51 6 -70 29 -103 62 -90 155 -107 155 -29 0 19 -10 35 -35 53 -54 42 -60 59 -45 138 18 92 9 114 -60 153 -40 22 -56 37 -58 55 -2 14 -9 31 -14 38 -14 17 -53 15 -72 -4z"/>
 <path d="M674 582 c-34 -22 -46 -111 -20 -147 8 -11 30 -37 50 -59 l37 -39 -24 -26 c-53 -57 -57 -81 -26 -182 17 -56 25 -70 45 -75 30 -8 64 19 64 51 0 12 -7 42 -16 68 l-16 47 36 34 c28 25 36 41 36 67 0 40 -51 133 -80 149 -17 9 -19 17 -14 49 4 28 2 42 -11 54 -17 18 -43 22 -61 9z"/>
 </g>

</svg>